<svg viewBox="0 0 128 128" xmlns="http://www.w3.org/2000/svg" xmlns:xlink="http://www.w3.org/1999/xlink" aria-hidden="true" role="img" class="iconify iconify--emojione-monotone" preserveAspectRatio="xMidYMid meet" fill="#000000">
  <g id="SVGRepo_bgCarrier" stroke-width="0"></g>
  <g id="SVGRepo_tracerCarrier" stroke-linecap="round" stroke-linejoin="round"></g>
  <g id="SVGRepo_iconCarrier">
    <path d="M78.39 74.622c-8.676-5.898-19.848-7.82-30.098-5.168c-2.7.73-.718 7.046 1.808 6.402c9.438-2.402 18.554.282 24.286 4.168c2.13 1.5 6.146-3.91 4.004-5.402" fill="black"></path>
    <path d="M99.37 34.076l-.278-.414l-.47-.166c-7.66-2.712-17.264-3.002-25.4-.726l-.488.136l-.304.404a16.386 16.386 0 0 0-3.35 9.948c0 9.118 7.418 16.536 16.536 16.536c9.12 0 16.54-7.418 16.54-16.536a16.5 16.5 0 0 0-2.786-9.182m-13.756 22.716a13.552 13.552 0 0 1-13.536-13.536c0-2.5.716-4.888 2.02-7.012c-.036.288-.102.562-.102.86a7.52 7.52 0 0 0 15.04 0c0-.954-.2-1.854-.526-2.692c3.014.266 5.95.844 8.63 1.744a13.466 13.466 0 0 1 2.012 7.1a13.552 13.552 0 0 1-13.538 13.536" fill="black"></path>
    <path d="M58.922 43.258a16.456 16.456 0 0 0-2.784-9.182l-.278-.414l-.47-.166c-7.66-2.712-17.264-3.002-25.4-.726l-.488.136l-.306.404a16.386 16.386 0 0 0-3.35 9.948c0 9.118 7.418 16.536 16.536 16.536c9.12-.002 16.54-7.418 16.54-16.536m-16.54 13.534a13.552 13.552 0 0 1-13.536-13.536c0-2.5.716-4.888 2.02-7.012c-.036.288-.102.562-.102.86a7.52 7.52 0 0 0 15.04 0c0-.954-.2-1.854-.526-2.692c3.014.266 5.95.844 8.63 1.744a13.466 13.466 0 0 1 2.012 7.1c.002 7.464-6.07 13.536-13.538 13.536" fill="black"></path>
    <path d="M64 4c-30.938 0-56 25.066-56 56a55.66 55.66 0 0 0 7.79 28.418c-.784 1.792-1.488 3.696-1.582 6.094c-.02.406-.046.844-.074 1.308c-.27 4.114-.668 10.332 4.832 18.126c3.55 5.024 9.062 8.324 15.938 9.532c2.438.426 4.934.59 7.644.5c4.434-.152 7.546-.312 9.25-3.406c1.444-2.618-.218-4.27 1.014-5.712A56.32 56.32 0 0 0 64 116c30.938 0 56-25.066 56-56S94.938 4 64 4m-13.978 111.938c.554 3.398-1.378 6.61-14.432 4.254c-21.482-3.876-20.024-24.2-16.554-31.522c2.548-5.378 2.16-7.666.688-14.342c-1.338-6.058 10.106-3.316 10.434 3.948c.242 5.388-1.832 8.136.75 10.506c5.772 5.3 22.426 2.396 33.684.008c4.816-1.022 7.292 3.862 3.722 6.35c-3.816 2.666-8.278 3.748-14.878 4.232c-3.446.25.442 1.36-.098 4.632c-.294 1.796-2.176 1.734-2.104 3.602c.038.994 2.088 2.04.694 4.54c-.414.746-2.266 1.602-1.906 3.792M64 111c-3.072 0-6.074-.294-8.998-.82a5.468 5.468 0 0 0-.556-1.66c-.754-1.476 2.996-3 1.472-6.964c5.714-.938 9.964-2.04 13.902-4.278c4.234-2.406 4.376-5.028 4.086-6.376c-.492-2.246-2.808-4.098-5.774-4.618a8.324 8.324 0 0 0-3.372.074c-6.25 1.516-21.208 3.558-28.774 2.23c-2.126-.376-2.82-.882-3.016-1.082c-1.098-1.102-.89-3.21-.352-7.57c.66-5.36-4.156-11.074-8.426-11.824l-.274-.046c-2.356-.296-4.458.382-5.766 1.868c-1.464 1.652-1.792 4.122-.906 6.766c.698 2.078.856 3.746.72 5.23A50.73 50.73 0 0 1 13 60c0-14.056 5.716-26.802 14.946-36.036c.158.044.304.044.426-.03a26.568 26.568 0 0 1 22.512-1.966c1.024.396 2.656-3.366 1.406-3.84a30.598 30.598 0 0 0-15.076-1.504A50.686 50.686 0 0 1 64 9c14.126 0 26.928 5.778 36.174 15.088a30.65 30.65 0 0 0-25.858 2.314c-1.144.684 1.114 4.098 2.058 3.536a26.568 26.568 0 0 1 22.512-1.972c.858.334 2.12-2.228 1.78-3.36C109.53 33.786 115 46.262 115 60c0 28.122-22.878 51-51 51" fill="black"></path>
  </g>
</svg>